<svg xmlns="http://www.w3.org/2000/svg" xmlns:xlink="http://www.w3.org/1999/xlink" width="286" height="58" viewBox="0 0 143 29">
  <defs>
    <path id="a" d="M0 .172h37.643v27.452H0z"/>
    <path id="c" d="M0 28.079h142.797V.626H0z"/>
  </defs>
  <g fill="none" fill-rule="evenodd">
    <path fill="#FEFEFE" d="M22.43 16.524a4.054 4.054 0 0 0 4.055 4.053 4.053 4.053 0 0 0 3.917-2.987l3.125.837c-.84 3.11-3.674 5.397-7.042 5.397-4.02 0-7.287-3.268-7.287-7.3 0-4.028 3.266-7.296 7.287-7.296 3.368 0 6.202 2.288 7.042 5.393l-3.125.84a4.052 4.052 0 0 0-3.917-2.99 4.061 4.061 0 0 0-4.055 4.053"/>
    <g transform="translate(0 .454)">
      <mask id="b" fill="#fff">
        <use xlink:href="#a"/>
      </mask>
      <path fill="#FEFEFE" d="M18.213 16.682c.31 4.303 3.893 7.697 8.271 7.697a8.3 8.3 0 0 0 8.018-6.14l3.141.846c-1.323 4.917-5.82 8.54-11.159 8.54a11.534 11.534 0 0 1-9.85-5.526 11.32 11.32 0 0 1-5.087 1.183C5.167 23.282 0 18.112 0 11.732 0 5.349 5.168.172 11.547.172c3.104 0 5.922 1.231 8 3.225l-2.293 2.296a8.274 8.274 0 0 0-5.707-2.268 8.304 8.304 0 0 0-8.304 8.307 8.303 8.303 0 0 0 14.97 4.95" mask="url(#b)"/>
    </g>
    <path fill="#FEFEFE" d="M15.283 13.753c1.241-5.041 5.782-8.78 11.2-8.78 5.34 0 9.837 3.628 11.16 8.544l-3.141.845a8.299 8.299 0 0 0-8.018-6.142c-3.591 0-6.66 2.29-7.811 5.495-.031.148-.069.291-.104.444-.867 3.068-3.678 5.323-7.022 5.323-4.032 0-7.291-3.27-7.291-7.297 0-4.027 3.26-7.298 7.29-7.298 1.931 0 3.688.755 4.99 1.982l-2.283 2.29a4.087 4.087 0 0 0-2.706-1.029 4.05 4.05 0 0 0-4.056 4.055 4.06 4.06 0 0 0 4.056 4.056 4.047 4.047 0 0 0 3.736-2.488M48.88 18.608a3 3 0 0 0 2.703-1.684l1.461 1.46a4.969 4.969 0 0 1-4.165 2.221c-2.752 0-5.016-2.234-5.016-5.01a5.026 5.026 0 0 1 9.191-2.805l-1.47 1.466c-.469-.996-1.514-1.687-2.705-1.687a3.015 3.015 0 0 0-3.016 3.026 3.006 3.006 0 0 0 3.016 3.013M81.98 18.608c1.189 0 2.21-.69 2.698-1.684l1.464 1.46a5.027 5.027 0 0 1-4.163 2.221 5.012 5.012 0 0 1-5.02-5.01 5.02 5.02 0 0 1 5.02-5.02c1.744 0 3.26.89 4.163 2.215l-1.464 1.466a3.003 3.003 0 0 0-2.699-1.687 3.033 3.033 0 0 0-3.026 3.026 3.024 3.024 0 0 0 3.026 3.013M113.218 13.51c0-1.614 1.277-2.934 2.895-2.934.756 0 1.406.273 1.897.741a2.89 2.89 0 0 1 1.942-.741c1.607 0 2.902 1.32 2.902 2.933v7.095h-1.971v-7.095c0-.53-.416-.94-.931-.94-.493 0-.91.41-.91.94v7.095h-1.99v-7.095a.93.93 0 0 0-.939-.94c-.49 0-.905.41-.905.94v7.095h-1.99v-7.095z"/>
    <mask id="d" fill="#fff">
      <use xlink:href="#c"/>
    </mask>
    <path fill="#FEFEFE" d="M132.806 20.604h1.993V10.576h-1.993zM128.14 18.619c-1.172 0-1.82-.769-1.82-1.388 0-.62.648-1.386 1.82-1.386 1.165 0 1.813.765 1.813 1.386 0 .62-.649 1.388-1.814 1.388zm-1.82-6.05h1.753c.284 0 .528.234.528.546 0 .465-.528.652-1.523.764l-.759 1.22v-2.53zm3.893 1.823c.236-.331.38-.76.38-1.277 0-1.402-1.102-2.54-2.52-2.54h-3.75v6.656c0 2.014 1.86 3.374 3.816 3.374 1.94 0 3.813-1.36 3.813-3.374 0-1.254-.715-2.252-1.74-2.839zM107.538 18.619a3.02 3.02 0 0 1-3.02-3.024 3.02 3.02 0 1 1 6.042 0 3.02 3.02 0 0 1-3.022 3.024m0-8.044a5.017 5.017 0 0 0-5.013 5.02 5.01 5.01 0 0 0 5.013 5.01 5.011 5.011 0 0 0 5.018-5.01 5.021 5.021 0 0 0-5.018-5.02M99.626 20.604c-1.455 0-2.238-.83-2.238-2.252v-7.776h1.98v7.776c0 .16.108.266.258.266h2.915v1.986h-2.915zM91.528 18.619a3.035 3.035 0 0 1-3.037-3.024 3.036 3.036 0 0 1 6.071 0 3.036 3.036 0 0 1-3.034 3.024m0-8.044c-2.766 0-5.03 2.243-5.03 5.02 0 2.775 2.264 5.01 5.03 5.01a5.01 5.01 0 0 0 5.011-5.01 5.018 5.018 0 0 0-5.011-5.02M140.79 15.031h-2.782v-1.523c0-.323.402-.939 1.388-.939.993 0 1.394.616 1.394.94v1.522zm-1.394-4.456c-1.674 0-3.38 1.126-3.38 2.933v7.097h1.992v-3.579h2.782l.005 3.579h2.002v-7.097c0-1.807-1.732-2.933-3.401-2.933zM67.831 20.604c-1.475 0-2.262-.83-2.262-2.252v-7.776h5.166v1.994H67.56v1.781h3.175v2.01H67.56v1.991c0 .16.1.266.271.266h2.904v1.986h-2.904zM57.269 13.51c0-1.808 1.722-2.934 3.393-2.934 1.646 0 3.39 1.126 3.39 2.933v7.095h-1.988v-7.095c0-.323-.423-.94-1.402-.94-.985 0-1.401.617-1.401.94v7.095h-1.992v-7.095zM53.885 20.604h1.976V10.576h-1.976z" mask="url(#d)"/>
  </g>
</svg>
